<?xml version="1.0" encoding="UTF-8"?>
<svg width="218px" height="218px" viewBox="0 0 218 218" version="1.1" xmlns="http://www.w3.org/2000/svg" xmlns:xlink="http://www.w3.org/1999/xlink">
    <title>Group</title>
    <g id="Page-1" stroke="none" stroke-width="1" fill="none" fill-rule="evenodd">
        <g id="Desktop-1440" transform="translate(-1163.000000, -26.000000)">
            <g id="Group" transform="translate(1163.000000, 26.000000)">
                <circle id="Oval" cx="109" cy="109" r="109"></circle>
                <path d="M199.459683,168.74579 L187.872812,162.844297 L204.214209,159.410852 L204.920035,158.025047 L198.087689,142.788616 L209.67456,148.690109 L210.498025,147.073337 L196.062554,139.720978 L195.23909,141.33775 L202.565403,157.698423 L185.024212,161.393431 L184.200748,163.010204 L198.636219,170.362563 L199.459683,168.74579 Z M213.052941,140.593429 L209.112155,136.621185 L211.617835,124.544793 L216.818043,122.447116 L217.234925,120.437909 L216.833084,120.354532 L199.244471,127.404266 L198.902189,129.053931 L212.234217,142.51926 L212.636059,142.602636 L213.052941,140.593429 Z M209.115494,125.547736 L207.21539,134.70549 L201.294033,128.689863 L209.115494,125.547736 Z M217.532549,106.117214 C217.415509,102.252586 216.131949,98.4016763 213.444353,95.9979314 L212.248372,97.1794766 C214.335368,99.7310702 215.181908,102.709209 215.287179,106.185216 C215.462412,111.971363 213.284364,115.689399 209.462916,115.805131 C205.641468,115.920864 203.234569,112.082364 203.065874,106.512118 C202.960603,103.036112 203.478817,100.167911 205.407579,97.4946997 L204.078826,96.432836 C201.732659,98.8809791 200.703463,102.715491 200.820503,106.580119 C201.021891,113.229871 204.271445,117.777587 209.51784,117.6187 C214.764234,117.459813 217.74113,113.004457 217.532549,106.117214 Z M215.857512,88.7011435 L208.75607,90.7359027 L203.853609,73.6259957 L210.955051,71.5912364 L210.455286,69.8470226 L194.881948,74.3092139 L195.381714,76.0534277 L201.694107,74.2447529 L206.596568,91.3546599 L200.284175,93.1633348 L200.78394,94.9075486 L216.357278,90.4453573 L215.857512,88.7011435 Z M207.647215,62.2164223 L193.030399,69.2013106 L193.812706,70.8383941 L208.429523,63.8535057 L207.647215,62.2164223 Z M203.585965,55.0725079 L192.480263,62.8237432 L193.658944,40.8494159 L192.620501,39.3615706 L179.336168,48.6333833 L180.374611,50.1212285 L191.498026,42.3576307 L190.301632,64.3443205 L191.340075,65.8321658 L204.624408,56.5603531 L203.585965,55.0725079 Z M174.893194,22.208677 L173.402537,23.8892288 L185.828924,34.9114919 L182.532278,38.6280967 L170.897689,28.3081624 L169.407032,29.9887142 L181.041621,40.3086485 L178.060307,43.6697519 L165.747033,32.7478215 L164.256376,34.4283732 L177.927018,46.554296 L188.67695,34.4349325 L174.893194,22.208677 Z M144.71564,5.91894655 L143.82908,7.98300177 L157.959919,14.0525295 L152.453016,26.8734878 L154.120138,27.5895557 L160.513601,12.7045422 L144.71564,5.91894655 Z M121.705277,0.742659355 L121.281251,2.94867736 L137.593058,6.08401868 L136.655309,10.9627124 L121.382877,8.02715222 L120.958851,10.2331702 L136.231284,13.1687304 L135.383233,17.5807664 L119.219909,14.4739652 L118.795884,16.6799832 L136.740992,20.1292664 L139.798867,4.22048268 L121.705277,0.742659355 Z M115.248966,0.0836151294 L112.352846,4.87120289 L100.029489,5.37377383 L96.7315583,0.838791771 L94.6812626,0.922406901 L94.6979856,1.33246604 L105.808681,16.6820748 L107.492082,16.6134223 L117.315985,0.410059143 L117.299262,-1.42108547e-14 L115.248966,0.0836151294 Z M101.610188,7.55757709 L110.95522,7.17646813 L106.557965,14.3816322 L101.610188,7.55757709 Z M88.0095309,2.06605904 L89.8367228,8.30562413 L78.9123015,11.5047275 L72.4002535,6.63707384 L70.3480377,7.23804391 L70.4694458,7.65263296 L76.5759438,12.2114126 C73.4296532,13.3803494 71.8766949,15.4556288 72.7265516,18.3577521 C73.6553235,21.5293582 76.4555502,22.3298527 80.1868516,21.2371798 L94.3036085,17.1032341 L89.7508049,1.55614504 L88.0095309,2.06605904 Z M77.8438085,14.1583637 L90.4680449,10.4614872 L91.9310124,15.4572851 L79.3067761,19.1541616 C76.6534062,19.9311734 74.9716692,19.5683826 74.4678256,17.8478381 C73.9700524,16.148023 75.1904386,14.9353755 77.8438085,14.1583637 Z M62.7520637,10.3849078 L69.6510635,22.0391803 L47.8264164,19.2204689 L46.2650785,20.1447369 L54.5174706,34.0852542 L56.0788085,33.1609863 L49.1688056,21.4881264 L71.0044558,24.3254252 L72.5657938,23.4011573 L64.3134017,9.46063989 L62.7520637,10.3849078 Z M39.5735826,24.777417 L49.9779982,37.1946686 L51.3687304,36.029374 L40.9643148,23.6121225 L39.5735826,24.777417 Z M33.6682506,30.4831842 L43.9313145,39.3199135 L22.3510359,43.6271082 L21.1671678,45.0020641 L33.4435601,55.5723145 L34.6274281,54.1973586 L24.3479957,45.3465356 L45.9446429,41.0534346 L47.1285109,39.6784787 L34.8521186,29.1082283 L33.6682506,30.4831842 Z M12.6645494,59.0117111 C10.8114717,62.7460111 10.6965692,66.2818659 11.8829649,68.8961053 L8.80652087,67.3694765 L8,68.9947677 L15.8942715,72.9121548 L19.9652816,64.7083041 L17.9530163,63.7097544 L14.6885271,70.288314 L14.6111323,70.2499082 C12.7700888,68.3717946 12.2284478,64.9441804 14.6768147,60.0102608 C17.2500003,54.8248079 20.7123745,52.9983009 24.1370952,54.6977556 C27.561816,56.3972103 27.9229254,60.8203348 25.4457542,65.8123006 C23.8999225,68.927442 21.8873887,71.0393674 18.926185,72.4876268 L19.5974339,74.0504971 C22.8206471,72.9975007 25.7393619,70.2742684 27.4580194,66.8108502 C30.4152626,60.8514492 29.6453513,55.405614 24.9436161,53.0724644 C20.2418809,50.7393147 15.7274084,52.8394743 12.6645494,59.0117111 Z" id="MACHINELEARNING" fill="#FFFFFF" fill-rule="nonzero"></path>
                <path d="M109,218 C138.659926,218 165.552958,206.153517 185.205604,186.934045 C205.440797,167.144864 218,139.539112 218,109 C218,48.8009623 169.199038,0 109,0 C48.8009623,0 0,48.8009623 0,109 C0,169.199038 48.8009623,218 109,218 Z" id="Oval" transform="translate(109.000000, 109.000000) rotate(-180.000000) translate(-109.000000, -109.000000) "></path>
                <path d="M144.086794,211.229319 L140.211692,212.9343 L136.850445,205.294814 C135.571709,202.388488 133.855616,201.491661 131.72431,202.4294 C129.593004,203.367139 129.067075,205.25042 130.34581,208.156746 L134.218552,216.958762 L144.598288,212.391849 L144.086794,211.229319 Z M135.295426,205.665139 L138.772369,213.567578 L135.146381,215.162953 L131.669439,207.260514 C130.768235,205.212246 131.114793,204.085157 132.235804,203.591931 C133.356816,203.098704 134.394222,203.616872 135.295426,205.665139 Z M134.801381,191.985938 C133.729888,190.30211 132.534305,189.127366 131.433801,188.806126 L132.262959,188.278497 L131.613569,187.257995 L127.506047,189.871789 C125.554336,191.113747 126.512172,193.604691 127.924595,195.824284 C129.296431,197.980095 130.970951,199.118897 131.84532,199.619879 L132.495899,198.614471 C131.660959,198.034633 130.322738,196.861047 129.186306,195.075168 C128.187869,193.506145 127.18596,191.509212 128.397806,190.738061 L129.061133,190.315958 C128.858176,191.574176 129.500597,193.315981 130.466564,194.833979 C132.146861,197.474529 134.074182,198.75713 135.464616,197.872337 C136.855051,196.987543 136.66026,194.907126 134.801381,191.985938 Z M133.446901,192.561106 C134.761915,194.627623 135.606116,196.348557 134.827983,196.843717 C134.088119,197.314525 132.832238,195.819716 131.59028,193.868006 C130.388909,191.980076 129.45542,189.921682 130.144259,189.483344 C130.833098,189.045006 132.245529,190.673176 133.446901,192.561106 Z M128.277605,182.579671 L125.47911,184.936999 C124.345835,185.89162 122.133645,184.908272 120.857571,183.393384 C119.308747,181.554703 119.318894,180.182065 120.452169,179.227444 L119.672887,178.302321 L119.430042,178.506883 C117.972974,179.734253 117.470472,181.719324 119.486865,184.113078 C121.123358,186.055835 123.244749,186.34466 123.998915,186.183851 L122.495591,187.450184 L123.274873,188.375307 L129.056888,183.504793 L128.277605,182.579671 Z M115.722088,168.850597 C113.542078,166.865498 111.594101,165.950559 110.403041,167.258565 C109.211982,168.566571 110.469903,170.059663 112.84178,172.485316 C114.865092,174.55267 116.168101,175.636932 115.659101,176.195909 C115.221361,176.676629 114.065501,175.992201 112.176159,174.271782 C110.510408,172.754962 109.360468,171.053458 108.84358,170.07155 L107.826134,170.515179 C107.903022,171.014629 108.852176,173.228578 111.1887,175.356197 C113.335171,177.310756 115.372585,178.307135 116.543284,177.021488 C117.703803,175.74702 116.525139,174.346548 114.142082,171.910715 C112.309822,170.037781 110.695785,168.711198 111.286225,168.062785 C111.795225,167.503808 113.336187,168.641153 114.878963,170.045993 C117.114871,172.081992 117.928056,173.906287 118.267071,174.746674 L119.351594,174.364125 C119.146733,173.645897 118.561691,171.436316 115.722088,168.850597 Z M104.111836,159.58768 C101.097386,157.540427 98.1246044,157.477147 96.824896,159.390885 C95.5251877,161.304622 96.6800762,164.044634 99.6945261,166.091887 C102.708976,168.139141 105.681757,168.202421 106.981466,166.288683 C108.281174,164.374945 107.126285,161.634933 104.111836,159.58768 Z M103.262353,160.838489 C105.626382,162.444012 106.855317,164.375278 106.005835,165.626087 C105.156352,166.876896 102.908038,166.446601 100.544009,164.841078 C98.1799795,163.235556 96.9510445,161.30429 97.8005271,160.053481 C98.6500097,158.802672 100.898324,159.232967 103.262353,160.838489 Z M94.2544612,153.476261 L92.6651967,156.755345 C92.0189397,158.088749 89.3803425,157.986066 87.353025,157.003492 C85.189646,155.954973 84.1064148,154.757875 84.871372,153.179561 L86.53977,149.737203 L85.4512774,149.209647 L83.6641791,152.896915 C82.7607383,154.760959 83.3670823,156.768666 86.4012554,158.23923 C88.782333,159.39326 90.8069842,159.063965 91.7947282,158.551358 L90.9572319,160.27934 L92.0457245,160.806897 L95.3429537,154.003818 L94.2544612,153.476261 Z M75.8735906,145.478981 C73.0661372,144.578277 70.9141206,144.554776 70.3736981,146.239248 C69.8332757,147.92372 71.597594,148.759704 74.7625192,149.981522 C77.4615749,151.02212 79.097156,151.467461 78.8662062,152.187321 C78.6675894,152.806401 77.3318914,152.663697 74.8987651,151.883087 C72.7535827,151.194857 71.0009605,150.124439 70.1230288,149.445799 L69.3816402,150.271841 C69.6589684,150.694276 71.4417083,152.314245 74.4507225,153.279615 C77.2149844,154.166462 79.4821785,154.226916 80.013363,152.571238 C80.5399284,150.929957 78.8861687,150.145323 75.7068463,148.918885 C73.2623212,147.975827 71.243175,147.439186 71.5110767,146.604149 C71.7420265,145.884289 73.6161202,146.279119 75.6029334,146.91654 C78.4823729,147.840339 79.979627,149.162289 80.6369817,149.786042 L81.4647535,148.987713 C80.9801651,148.419389 79.5304787,146.652206 75.8735906,145.478981 Z M48.1741954,140.325995 L48.0241174,141.891296 L56.3466887,142.537354 L51.6149362,144.362084 C49.6591452,145.116306 47.9311823,146.029075 47.7248251,148.181365 C47.5256832,150.2584 49.1365698,151.99254 52.1919187,152.285481 C54.5699734,152.513484 56.7665801,151.782351 58.0551648,149.749012 L57.0205582,149.133379 C55.8591785,150.632098 53.9223495,150.8717 52.3419966,150.720179 C50.4004203,150.534024 48.8606753,149.642119 48.9891074,148.302582 C49.1175395,146.963045 50.6073706,146.316041 52.1273036,145.671924 L58.6981481,142.884322 L58.8453399,141.349122 L48.1741954,140.325995 Z M37.2679409,140.288387 C33.2364475,140.499937 30.1288151,143.024973 30.3126335,146.527993 C30.4964518,150.031013 33.8512882,152.216936 37.8827815,152.005387 C41.8689772,151.796214 44.9766096,149.271178 44.7927913,145.768158 C44.6089729,142.265137 41.2541366,140.079215 37.2679409,140.288387 Z M37.3503422,141.858707 C40.6419735,141.685981 43.3897618,143.267844 43.5244563,145.834713 C43.6591508,148.401581 41.0920115,150.262341 37.8003802,150.435067 C34.4634512,150.61017 31.7156629,149.028307 31.5809684,146.461438 C31.446274,143.89457 34.0134132,142.03381 37.3503422,141.858707 Z M15.7593026,143.350282 L16.0769578,144.890343 L24.220585,143.056244 L20.2362574,146.1938 C18.5894019,147.490656 17.2069684,148.871916 17.6437443,150.989501 C18.0652483,153.033043 20.1154724,154.215742 23.1215534,153.595704 C25.4612618,153.113112 27.3450497,151.767386 27.9775244,149.444695 L26.8074794,149.161129 C26.1390885,150.93545 24.3587677,151.734933 22.8038982,152.055643 C20.89363,152.449657 19.1594795,152.05087 18.8876399,150.732933 C18.6158003,149.414996 19.8489511,148.357854 21.1117185,147.294603 L26.5699201,142.695173 L26.2583737,141.184729 L15.7593026,143.350282 Z M6.58903365,145.998864 L10.1408716,156.768267 L11.016783,156.479384 L14.6870074,151.049821 L14.213429,149.613901 L13.9262449,149.708617 L10.6925954,154.675771 L7.79520682,145.601058 L6.58903365,145.998864 Z" id="Parsons2021" fill="#FFFFFF" fill-rule="nonzero" transform="translate(75.593661, 178.616678) rotate(-180.000000) translate(-75.593661, -178.616678) "></path>
            </g>
        </g>
    </g>
</svg>